<?xml version="1.0" encoding="utf-8"?>
<!-- Generator: Adobe Illustrator 17.0.0, SVG Export Plug-In . SVG Version: 6.00 Build 0)  -->
<!DOCTYPE svg PUBLIC "-//W3C//DTD SVG 1.1//EN" "http://www.w3.org/Graphics/SVG/1.1/DTD/svg11.dtd">
<svg version="1.1" id="Layer_1" xmlns="http://www.w3.org/2000/svg" xmlns:xlink="http://www.w3.org/1999/xlink" x="0px" y="0px"
	 width="100px" height="100px" viewBox="0 0 100 100" enable-background="new 0 0 100 100" xml:space="preserve">
<rect x="35" y="75" fill="#5FA035" width="5" height="5"/>
<rect x="30" y="75" fill="#5FA035" width="5" height="5"/>
<rect x="20" y="75" fill="#5FA035" width="5" height="5"/>
<rect x="15" y="85" fill="#5FA035" width="5" height="5"/>
<rect y="85" fill="#5FA035" width="5" height="5"/>
<rect x="10" y="85" fill="#5FA035" width="5" height="5"/>
<rect x="5" y="85" fill="#5FA035" width="5" height="5"/>
<rect x="80" y="85" fill="#5FA035" width="5" height="5"/>
<rect x="90" y="85" fill="#5FA035" width="5" height="5"/>
<rect x="85" y="85" fill="#5FA035" width="5" height="5"/>
<rect x="95" y="85" fill="#5FA035" width="5" height="5"/>
<rect x="65" y="85" fill="#5FA035" width="5" height="5"/>
<rect x="75" y="85" fill="#5FA035" width="5" height="5"/>
<rect x="60" y="85" fill="#5FA035" width="5" height="5"/>
<rect x="70" y="85" fill="#5FA035" width="5" height="5"/>
<rect x="15" y="80" fill="#5FA035" width="5" height="5"/>
<rect x="50" y="80" fill="#5FA035" width="5" height="5"/>
<rect x="45" y="80" fill="#5FA035" width="5" height="5"/>
<rect x="55" y="80" fill="#5FA035" width="5" height="5"/>
<rect y="80" fill="#5FA035" width="5" height="5"/>
<rect x="10" y="80" fill="#5FA035" width="5" height="5"/>
<rect x="5" y="80" fill="#5FA035" width="5" height="5"/>
<rect x="80" y="80" fill="#5FA035" width="5" height="5"/>
<rect x="90" y="80" fill="#5FA035" width="5" height="5"/>
<rect x="85" y="80" fill="#5FA035" width="5" height="5"/>
<rect x="95" y="80" fill="#5FA035" width="5" height="5"/>
<rect x="65" y="80" fill="#5FA035" width="5" height="5"/>
<rect x="75" y="80" fill="#5FA035" width="5" height="5"/>
<rect x="60" y="80" fill="#5FA035" width="5" height="5"/>
<rect x="70" y="80" fill="#5FA035" width="5" height="5"/>
<rect x="15" y="75" fill="#5FA035" width="5" height="5"/>
<rect x="50" y="75" fill="#5FA035" width="5" height="5"/>
<rect x="45" y="75" fill="#5FA035" width="5" height="5"/>
<rect x="55" y="75" fill="#5FA035" width="5" height="5"/>
<rect y="75" fill="#5FA035" width="5" height="5"/>
<rect x="10" y="75" fill="#5FA035" width="5" height="5"/>
<rect x="5" y="75" fill="#5FA035" width="5" height="5"/>
<rect x="80" y="75" fill="#5FA035" width="5" height="5"/>
<rect x="90" y="75" fill="#5FA035" width="5" height="5"/>
<rect x="85" y="75" fill="#5FA035" width="5" height="5"/>
<rect x="95" y="75" fill="#5FA035" width="5" height="5"/>
<rect x="65" y="75" fill="#5FA035" width="5" height="5"/>
<rect x="75" y="75" fill="#5FA035" width="5" height="5"/>
<rect x="60" y="75" fill="#5FA035" width="5" height="5"/>
<rect x="70" y="75" fill="#5FA035" width="5" height="5"/>
<rect x="45" y="85" fill="#5FA035" width="5" height="5"/>
<rect x="50" y="85" fill="#5FA035" width="5" height="5"/>
<rect x="55" y="85" fill="#5FA035" width="5" height="5"/>
<rect y="95" fill="#5FA035" width="5" height="5"/>
<rect x="50" y="95" fill="#5FA035" width="5" height="5"/>
<rect x="60" y="95" fill="#5FA035" width="5" height="5"/>
<rect x="55" y="95" fill="#5FA035" width="5" height="5"/>
<rect x="65" y="95" fill="#5FA035" width="5" height="5"/>
<rect x="10" y="95" fill="#5FA035" width="5" height="5"/>
<rect x="45" y="95" fill="#5FA035" width="5" height="5"/>
<rect x="5" y="95" fill="#5FA035" width="5" height="5"/>
<rect x="15" y="95" fill="#5FA035" width="5" height="5"/>
<rect y="90" fill="#5FA035" width="5" height="5"/>
<rect x="50" y="90" fill="#5FA035" width="5" height="5"/>
<rect x="60" y="90" fill="#5FA035" width="5" height="5"/>
<rect x="55" y="90" fill="#5FA035" width="5" height="5"/>
<rect x="65" y="90" fill="#5FA035" width="5" height="5"/>
<rect x="10" y="90" fill="#5FA035" width="5" height="5"/>
<rect x="45" y="90" fill="#5FA035" width="5" height="5"/>
<rect x="5" y="90" fill="#5FA035" width="5" height="5"/>
<rect x="15" y="90" fill="#5FA035" width="5" height="5"/>
<rect x="35" y="80" fill="#5FA035" width="5" height="5"/>
<rect x="30" y="80" fill="#5FA035" width="5" height="5"/>
<rect x="40" y="80" fill="#5FA035" width="5" height="5"/>
<rect x="40" y="75" fill="#5FA035" width="5" height="5"/>
<rect x="30" y="85" fill="#5FA035" width="5" height="5"/>
<rect x="35" y="85" fill="#5FA035" width="5" height="5"/>
<rect x="40" y="85" fill="#5FA035" width="5" height="5"/>
<rect x="35" y="95" fill="#5FA035" width="5" height="5"/>
<rect x="40" y="95" fill="#5FA035" width="5" height="5"/>
<rect x="30" y="95" fill="#5FA035" width="5" height="5"/>
<rect x="35" y="90" fill="#5FA035" width="5" height="5"/>
<rect x="40" y="90" fill="#5FA035" width="5" height="5"/>
<rect x="30" y="90" fill="#5FA035" width="5" height="5"/>
<rect x="25" y="80" fill="#5FA035" width="5" height="5"/>
<rect x="20" y="80" fill="#5FA035" width="5" height="5"/>
<rect x="25" y="75" fill="#5FA035" width="5" height="5"/>
<rect x="20" y="85" fill="#5FA035" width="5" height="5"/>
<rect x="25" y="85" fill="#5FA035" width="5" height="5"/>
<rect x="25" y="95" fill="#5FA035" width="5" height="5"/>
<rect x="20" y="95" fill="#5FA035" width="5" height="5"/>
<rect x="25" y="90" fill="#5FA035" width="5" height="5"/>
<rect x="20" y="90" fill="#5FA035" width="5" height="5"/>
<rect x="70" y="95" fill="#5FA035" width="5" height="5"/>
<rect x="75" y="95" fill="#5FA035" width="5" height="5"/>
<rect x="85" y="95" fill="#5FA035" width="5" height="5"/>
<rect x="95" y="95" fill="#5FA035" width="5" height="5"/>
<rect x="80" y="95" fill="#5FA035" width="5" height="5"/>
<rect x="90" y="95" fill="#5FA035" width="5" height="5"/>
<rect x="70" y="90" fill="#5FA035" width="5" height="5"/>
<rect x="75" y="90" fill="#5FA035" width="5" height="5"/>
<rect x="85" y="90" fill="#5FA035" width="5" height="5"/>
<rect x="95" y="90" fill="#5FA035" width="5" height="5"/>
<rect x="80" y="90" fill="#5FA035" width="5" height="5"/>
<rect x="90" y="90" fill="#5FA035" width="5" height="5"/>
<rect x="35" y="50" fill="#5FA035" width="5" height="5"/>
<rect x="30" y="50" fill="#5FA035" width="5" height="5"/>
<rect x="20" y="50" fill="#5FA035" width="5" height="5"/>
<rect x="15" y="60" fill="#5FA035" width="5" height="5"/>
<rect y="60" fill="#5FA035" width="5" height="5"/>
<rect x="10" y="60" fill="#5FA035" width="5" height="5"/>
<rect x="5" y="60" fill="#5FA035" width="5" height="5"/>
<rect x="80" y="60" fill="#5FA035" width="5" height="5"/>
<rect x="90" y="60" fill="#5FA035" width="5" height="5"/>
<rect x="85" y="60" fill="#5FA035" width="5" height="5"/>
<rect x="95" y="60" fill="#5FA035" width="5" height="5"/>
<rect x="65" y="60" fill="#5FA035" width="5" height="5"/>
<rect x="75" y="60" fill="#5FA035" width="5" height="5"/>
<rect x="60" y="60" fill="#5FA035" width="5" height="5"/>
<rect x="70" y="60" fill="#5FA035" width="5" height="5"/>
<rect x="15" y="55" fill="#5FA035" width="5" height="5"/>
<rect x="50" y="55" fill="#5FA035" width="5" height="5"/>
<rect x="45" y="55" fill="#5FA035" width="5" height="5"/>
<rect x="55" y="55" fill="#5FA035" width="5" height="5"/>
<rect y="55" fill="#5FA035" width="5" height="5"/>
<rect x="10" y="55" fill="#5FA035" width="5" height="5"/>
<rect x="5" y="55" fill="#5FA035" width="5" height="5"/>
<rect x="80" y="55" fill="#5FA035" width="5" height="5"/>
<rect x="90" y="55" fill="#5FA035" width="5" height="5"/>
<rect x="85" y="55" fill="#5FA035" width="5" height="5"/>
<rect x="95" y="55" fill="#5FA035" width="5" height="5"/>
<rect x="65" y="55" fill="#5FA035" width="5" height="5"/>
<rect x="75" y="55" fill="#5FA035" width="5" height="5"/>
<rect x="60" y="55" fill="#5FA035" width="5" height="5"/>
<rect x="70" y="55" fill="#5FA035" width="5" height="5"/>
<rect x="15" y="50" fill="#5FA035" width="5" height="5"/>
<rect x="50" y="50" fill="#5FA035" width="5" height="5"/>
<rect x="45" y="50" fill="#5FA035" width="5" height="5"/>
<rect x="55" y="50" fill="#5FA035" width="5" height="5"/>
<rect y="50" fill="#5FA035" width="5" height="5"/>
<rect x="10" y="50" fill="#5FA035" width="5" height="5"/>
<rect x="5" y="50" fill="#5FA035" width="5" height="5"/>
<rect x="80" y="50" fill="#5FA035" width="5" height="5"/>
<rect x="90" y="50" fill="#5FA035" width="5" height="5"/>
<rect x="85" y="50" fill="#5FA035" width="5" height="5"/>
<rect x="95" y="50" fill="#5FA035" width="5" height="5"/>
<rect x="65" y="50" fill="#5FA035" width="5" height="5"/>
<rect x="75" y="50" fill="#5FA035" width="5" height="5"/>
<rect x="60" y="50" fill="#5FA035" width="5" height="5"/>
<rect x="70" y="50" fill="#5FA035" width="5" height="5"/>
<rect x="45" y="60" fill="#5FA035" width="5" height="5"/>
<rect x="50" y="60" fill="#5FA035" width="5" height="5"/>
<rect x="55" y="60" fill="#5FA035" width="5" height="5"/>
<rect y="70" fill="#5FA035" width="5" height="5"/>
<rect x="50" y="70" fill="#5FA035" width="5" height="5"/>
<rect x="60" y="70" fill="#5FA035" width="5" height="5"/>
<rect x="55" y="70" fill="#5FA035" width="5" height="5"/>
<rect x="65" y="70" fill="#5FA035" width="5" height="5"/>
<rect x="10" y="70" fill="#5FA035" width="5" height="5"/>
<rect x="45" y="70" fill="#5FA035" width="5" height="5"/>
<rect x="5" y="70" fill="#5FA035" width="5" height="5"/>
<rect x="15" y="70" fill="#5FA035" width="5" height="5"/>
<rect y="65" fill="#5FA035" width="5" height="5"/>
<rect x="50" y="65" fill="#5FA035" width="5" height="5"/>
<rect x="60" y="65" fill="#5FA035" width="5" height="5"/>
<rect x="55" y="65" fill="#5FA035" width="5" height="5"/>
<rect x="65" y="65" fill="#5FA035" width="5" height="5"/>
<rect x="10" y="65" fill="#5FA035" width="5" height="5"/>
<rect x="45" y="65" fill="#5FA035" width="5" height="5"/>
<rect x="5" y="65" fill="#5FA035" width="5" height="5"/>
<rect x="15" y="65" fill="#5FA035" width="5" height="5"/>
<rect x="35" y="55" fill="#5FA035" width="5" height="5"/>
<rect x="30" y="55" fill="#5FA035" width="5" height="5"/>
<rect x="40" y="55" fill="#5FA035" width="5" height="5"/>
<rect x="40" y="50" fill="#5FA035" width="5" height="5"/>
<rect x="30" y="60" fill="#5FA035" width="5" height="5"/>
<rect x="35" y="60" fill="#5FA035" width="5" height="5"/>
<rect x="40" y="60" fill="#5FA035" width="5" height="5"/>
<rect x="35" y="70" fill="#5FA035" width="5" height="5"/>
<rect x="40" y="70" fill="#5FA035" width="5" height="5"/>
<rect x="30" y="70" fill="#5FA035" width="5" height="5"/>
<rect x="35" y="65" fill="#5FA035" width="5" height="5"/>
<rect x="40" y="65" fill="#5FA035" width="5" height="5"/>
<rect x="30" y="65" fill="#5FA035" width="5" height="5"/>
<rect x="25" y="55" fill="#5FA035" width="5" height="5"/>
<rect x="20" y="55" fill="#5FA035" width="5" height="5"/>
<rect x="25" y="50" fill="#5FA035" width="5" height="5"/>
<rect x="20" y="60" fill="#5FA035" width="5" height="5"/>
<rect x="25" y="60" fill="#5FA035" width="5" height="5"/>
<rect x="25" y="70" fill="#5FA035" width="5" height="5"/>
<rect x="20" y="70" fill="#5FA035" width="5" height="5"/>
<rect x="25" y="65" fill="#5FA035" width="5" height="5"/>
<rect x="20" y="65" fill="#5FA035" width="5" height="5"/>
<rect x="70" y="70" fill="#5FA035" width="5" height="5"/>
<rect x="75" y="70" fill="#5FA035" width="5" height="5"/>
<rect x="85" y="70" fill="#5FA035" width="5" height="5"/>
<rect x="95" y="70" fill="#5FA035" width="5" height="5"/>
<rect x="80" y="70" fill="#5FA035" width="5" height="5"/>
<rect x="90" y="70" fill="#5FA035" width="5" height="5"/>
<rect x="70" y="65" fill="#5FA035" width="5" height="5"/>
<rect x="75" y="65" fill="#5FA035" width="5" height="5"/>
<rect x="85" y="65" fill="#5FA035" width="5" height="5"/>
<rect x="95" y="65" fill="#5FA035" width="5" height="5"/>
<rect x="80" y="65" fill="#5FA035" width="5" height="5"/>
<rect x="90" y="65" fill="#5FA035" width="5" height="5"/>
<rect x="35" y="25" fill="#5FA035" width="5" height="5"/>
<rect x="30" y="25" fill="#5FA035" width="5" height="5"/>
<rect x="20" y="25" fill="#5FA035" width="5" height="5"/>
<rect x="15" y="35" fill="#5FA035" width="5" height="5"/>
<rect y="35" fill="#5FA035" width="5" height="5"/>
<rect x="10" y="35" fill="#5FA035" width="5" height="5"/>
<rect x="5" y="35" fill="#5FA035" width="5" height="5"/>
<rect x="80" y="35" fill="#5FA035" width="5" height="5"/>
<rect x="90" y="35" fill="#5FA035" width="5" height="5"/>
<rect x="85" y="35" fill="#5FA035" width="5" height="5"/>
<rect x="95" y="35" fill="#5FA035" width="5" height="5"/>
<rect x="65" y="35" fill="#5FA035" width="5" height="5"/>
<rect x="75" y="35" fill="#5FA035" width="5" height="5"/>
<rect x="60" y="35" fill="#5FA035" width="5" height="5"/>
<rect x="70" y="35" fill="#5FA035" width="5" height="5"/>
<rect x="15" y="30" fill="#5FA035" width="5" height="5"/>
<rect x="50" y="30" fill="#5FA035" width="5" height="5"/>
<rect x="45" y="30" fill="#5FA035" width="5" height="5"/>
<rect x="55" y="30" fill="#5FA035" width="5" height="5"/>
<rect y="30" fill="#5FA035" width="5" height="5"/>
<rect x="10" y="30" fill="#5FA035" width="5" height="5"/>
<rect x="5" y="30" fill="#5FA035" width="5" height="5"/>
<rect x="80" y="30" fill="#5FA035" width="5" height="5"/>
<rect x="90" y="30" fill="#5FA035" width="5" height="5"/>
<rect x="85" y="30" fill="#5FA035" width="5" height="5"/>
<rect x="95" y="30" fill="#5FA035" width="5" height="5"/>
<rect x="65" y="30" fill="#5FA035" width="5" height="5"/>
<rect x="75" y="30" fill="#5FA035" width="5" height="5"/>
<rect x="60" y="30" fill="#5FA035" width="5" height="5"/>
<rect x="70" y="30" fill="#5FA035" width="5" height="5"/>
<rect x="15" y="25" fill="#5FA035" width="5" height="5"/>
<rect x="50" y="25" fill="#5FA035" width="5" height="5"/>
<rect x="45" y="25" fill="#5FA035" width="5" height="5"/>
<rect x="55" y="25" fill="#5FA035" width="5" height="5"/>
<rect y="25" fill="#5FA035" width="5" height="5"/>
<rect x="10" y="25" fill="#5FA035" width="5" height="5"/>
<rect x="5" y="25" fill="#5FA035" width="5" height="5"/>
<rect x="80" y="25" fill="#5FA035" width="5" height="5"/>
<rect x="90" y="25" fill="#5FA035" width="5" height="5"/>
<rect x="85" y="25" fill="#5FA035" width="5" height="5"/>
<rect x="95" y="25" fill="#5FA035" width="5" height="5"/>
<rect x="65" y="25" fill="#5FA035" width="5" height="5"/>
<rect x="75" y="25" fill="#5FA035" width="5" height="5"/>
<rect x="60" y="25" fill="#5FA035" width="5" height="5"/>
<rect x="70" y="25" fill="#5FA035" width="5" height="5"/>
<rect x="45" y="35" fill="#5FA035" width="5" height="5"/>
<rect x="50" y="35" fill="#5FA035" width="5" height="5"/>
<rect x="55" y="35" fill="#5FA035" width="5" height="5"/>
<rect y="45" fill="#5FA035" width="5" height="5"/>
<rect x="50" y="45" fill="#5FA035" width="5" height="5"/>
<rect x="60" y="45" fill="#5FA035" width="5" height="5"/>
<rect x="55" y="45" fill="#5FA035" width="5" height="5"/>
<rect x="65" y="45" fill="#5FA035" width="5" height="5"/>
<rect x="10" y="45" fill="#5FA035" width="5" height="5"/>
<rect x="45" y="45" fill="#5FA035" width="5" height="5"/>
<rect x="5" y="45" fill="#5FA035" width="5" height="5"/>
<rect x="15" y="45" fill="#5FA035" width="5" height="5"/>
<rect y="40" fill="#5FA035" width="5" height="5"/>
<rect x="50" y="40" fill="#5FA035" width="5" height="5"/>
<rect x="60" y="40" fill="#5FA035" width="5" height="5"/>
<rect x="55" y="40" fill="#5FA035" width="5" height="5"/>
<rect x="65" y="40" fill="#5FA035" width="5" height="5"/>
<rect x="10" y="40" fill="#5FA035" width="5" height="5"/>
<rect x="45" y="40" fill="#5FA035" width="5" height="5"/>
<rect x="5" y="40" fill="#5FA035" width="5" height="5"/>
<rect x="15" y="40" fill="#5FA035" width="5" height="5"/>
<rect x="35" y="30" fill="#5FA035" width="5" height="5"/>
<rect x="30" y="30" fill="#5FA035" width="5" height="5"/>
<rect x="40" y="30" fill="#5FA035" width="5" height="5"/>
<rect x="40" y="25" fill="#5FA035" width="5" height="5"/>
<rect x="30" y="35" fill="#5FA035" width="5" height="5"/>
<rect x="35" y="35" fill="#5FA035" width="5" height="5"/>
<rect x="40" y="35" fill="#5FA035" width="5" height="5"/>
<rect x="35" y="45" fill="#5FA035" width="5" height="5"/>
<rect x="40" y="45" fill="#5FA035" width="5" height="5"/>
<rect x="30" y="45" fill="#5FA035" width="5" height="5"/>
<rect x="35" y="40" fill="#5FA035" width="5" height="5"/>
<rect x="40" y="40" fill="#5FA035" width="5" height="5"/>
<rect x="30" y="40" fill="#5FA035" width="5" height="5"/>
<rect x="25" y="30" fill="#5FA035" width="5" height="5"/>
<rect x="20" y="30" fill="#5FA035" width="5" height="5"/>
<rect x="25" y="25" fill="#5FA035" width="5" height="5"/>
<rect x="20" y="35" fill="#5FA035" width="5" height="5"/>
<rect x="25" y="35" fill="#5FA035" width="5" height="5"/>
<rect x="25" y="45" fill="#5FA035" width="5" height="5"/>
<rect x="20" y="45" fill="#5FA035" width="5" height="5"/>
<rect x="25" y="40" fill="#5FA035" width="5" height="5"/>
<rect x="20" y="40" fill="#5FA035" width="5" height="5"/>
<rect x="70" y="45" fill="#5FA035" width="5" height="5"/>
<rect x="75" y="45" fill="#5FA035" width="5" height="5"/>
<rect x="85" y="45" fill="#5FA035" width="5" height="5"/>
<rect x="95" y="45" fill="#5FA035" width="5" height="5"/>
<rect x="80" y="45" fill="#5FA035" width="5" height="5"/>
<rect x="90" y="45" fill="#5FA035" width="5" height="5"/>
<rect x="70" y="40" fill="#5FA035" width="5" height="5"/>
<rect x="75" y="40" fill="#5FA035" width="5" height="5"/>
<rect x="85" y="40" fill="#5FA035" width="5" height="5"/>
<rect x="95" y="40" fill="#5FA035" width="5" height="5"/>
<rect x="80" y="40" fill="#5FA035" width="5" height="5"/>
<rect x="90" y="40" fill="#5FA035" width="5" height="5"/>
<rect x="35" y="0" fill="#5FA035" width="5" height="5"/>
<rect x="30" y="0" fill="#5FA035" width="5" height="5"/>
<rect x="20" y="0" fill="#5FA035" width="5" height="5"/>
<rect x="15" y="10" fill="#5FA035" width="5" height="5"/>
<rect y="10" fill="#5FA035" width="5" height="5"/>
<rect x="10" y="10" fill="#5FA035" width="5" height="5"/>
<rect x="5" y="10" fill="#5FA035" width="5" height="5"/>
<rect x="80" y="10" fill="#5FA035" width="5" height="5"/>
<rect x="90" y="10" fill="#5FA035" width="5" height="5"/>
<rect x="85" y="10" fill="#5FA035" width="5" height="5"/>
<rect x="95" y="10" fill="#5FA035" width="5" height="5"/>
<rect x="65" y="10" fill="#5FA035" width="5" height="5"/>
<rect x="75" y="10" fill="#5FA035" width="5" height="5"/>
<rect x="60" y="10" fill="#5FA035" width="5" height="5"/>
<rect x="70" y="10" fill="#5FA035" width="5" height="5"/>
<rect x="15" y="5" fill="#5FA035" width="5" height="5"/>
<rect x="50" y="5" fill="#5FA035" width="5" height="5"/>
<rect x="45" y="5" fill="#5FA035" width="5" height="5"/>
<rect x="55" y="5" fill="#5FA035" width="5" height="5"/>
<rect y="5" fill="#5FA035" width="5" height="5"/>
<rect x="10" y="5" fill="#5FA035" width="5" height="5"/>
<rect x="5" y="5" fill="#5FA035" width="5" height="5"/>
<rect x="80" y="5" fill="#5FA035" width="5" height="5"/>
<rect x="90" y="5" fill="#5FA035" width="5" height="5"/>
<rect x="85" y="5" fill="#5FA035" width="5" height="5"/>
<rect x="95" y="5" fill="#5FA035" width="5" height="5"/>
<rect x="65" y="5" fill="#5FA035" width="5" height="5"/>
<rect x="75" y="5" fill="#5FA035" width="5" height="5"/>
<rect x="60" y="5" fill="#5FA035" width="5" height="5"/>
<rect x="70" y="5" fill="#5FA035" width="5" height="5"/>
<rect x="15" y="0" fill="#5FA035" width="5" height="5"/>
<rect x="50" y="0" fill="#5FA035" width="5" height="5"/>
<rect x="45" y="0" fill="#5FA035" width="5" height="5"/>
<rect x="55" y="0" fill="#5FA035" width="5" height="5"/>
<rect y="0" fill="#5FA035" width="5" height="5"/>
<rect x="10" y="0" fill="#5FA035" width="5" height="5"/>
<rect x="5" y="0" fill="#5FA035" width="5" height="5"/>
<rect x="80" y="0" fill="#5FA035" width="5" height="5"/>
<rect x="90" y="0" fill="#5FA035" width="5" height="5"/>
<rect x="85" y="0" fill="#5FA035" width="5" height="5"/>
<rect x="95" y="0" fill="#5FA035" width="5" height="5"/>
<rect x="65" y="0" fill="#5FA035" width="5" height="5"/>
<rect x="75" y="0" fill="#5FA035" width="5" height="5"/>
<rect x="60" y="0" fill="#5FA035" width="5" height="5"/>
<rect x="70" y="0" fill="#5FA035" width="5" height="5"/>
<rect x="45" y="10" fill="#5FA035" width="5" height="5"/>
<rect x="50" y="10" fill="#5FA035" width="5" height="5"/>
<rect x="55" y="10" fill="#5FA035" width="5" height="5"/>
<rect y="20" fill="#5FA035" width="5" height="5"/>
<rect x="50" y="20" fill="#5FA035" width="5" height="5"/>
<rect x="60" y="20" fill="#5FA035" width="5" height="5"/>
<rect x="55" y="20" fill="#5FA035" width="5" height="5"/>
<rect x="65" y="20" fill="#5FA035" width="5" height="5"/>
<rect x="10" y="20" fill="#5FA035" width="5" height="5"/>
<rect x="45" y="20" fill="#5FA035" width="5" height="5"/>
<rect x="5" y="20" fill="#5FA035" width="5" height="5"/>
<rect x="15" y="20" fill="#5FA035" width="5" height="5"/>
<rect y="15" fill="#5FA035" width="5" height="5"/>
<rect x="50" y="15" fill="#5FA035" width="5" height="5"/>
<rect x="60" y="15" fill="#5FA035" width="5" height="5"/>
<rect x="55" y="15" fill="#5FA035" width="5" height="5"/>
<rect x="65" y="15" fill="#5FA035" width="5" height="5"/>
<rect x="10" y="15" fill="#5FA035" width="5" height="5"/>
<rect x="45" y="15" fill="#5FA035" width="5" height="5"/>
<rect x="5" y="15" fill="#5FA035" width="5" height="5"/>
<rect x="15" y="15" fill="#5FA035" width="5" height="5"/>
<rect x="35" y="5" fill="#5FA035" width="5" height="5"/>
<rect x="30" y="5" fill="#5FA035" width="5" height="5"/>
<rect x="40" y="5" fill="#5FA035" width="5" height="5"/>
<rect x="40" y="0" fill="#5FA035" width="5" height="5"/>
<rect x="30" y="10" fill="#5FA035" width="5" height="5"/>
<rect x="35" y="10" fill="#5FA035" width="5" height="5"/>
<rect x="40" y="10" fill="#5FA035" width="5" height="5"/>
<rect x="35" y="20" fill="#5FA035" width="5" height="5"/>
<rect x="40" y="20" fill="#5FA035" width="5" height="5"/>
<rect x="30" y="20" fill="#5FA035" width="5" height="5"/>
<rect x="35" y="15" fill="#5FA035" width="5" height="5"/>
<rect x="40" y="15" fill="#5FA035" width="5" height="5"/>
<rect x="30" y="15" fill="#5FA035" width="5" height="5"/>
<rect x="25" y="5" fill="#5FA035" width="5" height="5"/>
<rect x="20" y="5" fill="#5FA035" width="5" height="5"/>
<rect x="25" y="0" fill="#5FA035" width="5" height="5"/>
<rect x="20" y="10" fill="#5FA035" width="5" height="5"/>
<rect x="25" y="10" fill="#5FA035" width="5" height="5"/>
<rect x="25" y="20" fill="#5FA035" width="5" height="5"/>
<rect x="20" y="20" fill="#5FA035" width="5" height="5"/>
<rect x="25" y="15" fill="#5FA035" width="5" height="5"/>
<rect x="20" y="15" fill="#5FA035" width="5" height="5"/>
<rect x="70" y="20" fill="#5FA035" width="5" height="5"/>
<rect x="75" y="20" fill="#5FA035" width="5" height="5"/>
<rect x="85" y="20" fill="#5FA035" width="5" height="5"/>
<rect x="95" y="20" fill="#5FA035" width="5" height="5"/>
<rect x="80" y="20" fill="#5FA035" width="5" height="5"/>
<rect x="90" y="20" fill="#5FA035" width="5" height="5"/>
<rect x="70" y="15" fill="#5FA035" width="5" height="5"/>
<rect x="75" y="15" fill="#5FA035" width="5" height="5"/>
<rect x="85" y="15" fill="#5FA035" width="5" height="5"/>
<rect x="95" y="15" fill="#5FA035" width="5" height="5"/>
<rect x="80" y="15" fill="#5FA035" width="5" height="5"/>
<rect x="90" y="15" fill="#5FA035" width="5" height="5"/>
<rect x="50" y="60" fill="#3A6D19" width="5" height="5"/>
<rect x="50" y="55" fill="#3A6D19" width="5" height="5"/>
<rect x="64" y="20" fill="#3A6D19" width="5" height="5"/>
<rect x="25" y="30" fill="#3A6D19" width="5" height="5"/>
<rect x="20" y="35" fill="#3A6D19" width="5" height="5"/>
<rect x="20" y="70" fill="#3A6D19" width="5" height="5"/>
<rect x="20" y="75" fill="#3A6D19" width="5" height="5"/>
<rect x="15" y="80" fill="#356019" width="5" height="5"/>
<rect x="15" y="85" fill="#356019" width="5" height="5"/>
<rect x="55" y="50" fill="#457C21" width="5" height="5"/>
<rect x="59" y="15" fill="#457C21" width="5" height="5"/>
<rect x="59" y="10" fill="#457C21" width="5" height="5"/>
<rect x="25" y="25" fill="#457C21" width="5" height="5"/>
<rect x="25" y="65" fill="#457C21" width="5" height="5"/>
<rect x="45" y="65" fill="#356019" width="5" height="5"/>
<rect x="45" y="70" fill="#356019" width="5" height="5"/>
<rect x="69" y="25" fill="#356019" width="5" height="5"/>
<rect x="69" y="30" fill="#356019" width="5" height="5"/>
<rect x="15" y="40" fill="#356019" width="5" height="5"/>
<rect x="15" y="45" fill="#356019" width="5" height="5"/>
<rect x="10" y="50" fill="#356019" width="5" height="5"/>
<rect x="15" y="90" fill="#381E0C" width="5" height="5"/>
<rect x="81" y="75" fill="#3A6D19" width="5" height="5"/>
<rect x="81" y="70" fill="#3A6D19" width="5" height="5"/>
<rect x="86" y="65" fill="#457C21" width="5" height="5"/>
<rect x="91" y="60" fill="#457C21" width="5" height="5"/>
<rect x="76" y="85" fill="#356019" width="5" height="5"/>
<rect x="76" y="80" fill="#356019" width="5" height="5"/>
<rect x="76" y="90" fill="#381E0C" width="5" height="5"/>
<rect x="45" y="75" fill="#492913" width="5" height="5"/>
<rect x="10" y="55" fill="#492913" width="5" height="5"/>
<rect x="69" y="35" fill="#492913" width="5" height="5"/>
</svg>
