<?xml version="1.0" encoding="utf-8"?>
<!-- Generator: Adobe Illustrator 17.0.0, SVG Export Plug-In . SVG Version: 6.00 Build 0)  -->
<!DOCTYPE svg PUBLIC "-//W3C//DTD SVG 1.1//EN" "http://www.w3.org/Graphics/SVG/1.1/DTD/svg11.dtd">
<svg version="1.1" id="Layer_1" xmlns="http://www.w3.org/2000/svg" xmlns:xlink="http://www.w3.org/1999/xlink" x="0px" y="0px"
	 width="504px" height="509px" viewBox="0 0 504 509" enable-background="new 0 0 504 509" xml:space="preserve">
<g>
	<rect x="49" y="421" fill="#381E0C" width="12" height="13"/>
	<rect x="61" y="434" fill="#381E0C" width="13" height="12"/>
	<rect x="49" y="434" fill="#381E0C" width="12" height="12"/>
	<rect x="36" y="434" fill="#381E0C" width="13" height="12"/>
	<rect x="49" y="446" fill="#381E0C" width="12" height="12"/>
	<rect x="36" y="446" fill="#381E0C" width="13" height="12"/>
	<rect x="24" y="446" fill="#381E0C" width="12" height="12"/>
	<rect x="49" y="458" fill="#381E0C" width="12" height="12"/>
	<rect x="12" y="470" fill="#381E0C" width="12" height="12"/>
	<rect x="12" y="482" fill="#381E0C" width="12" height="12"/>
	<rect x="24" y="470" fill="#381E0C" width="12" height="12"/>
	<rect x="24" y="482" fill="#381E0C" width="12" height="12"/>
	<rect x="12" y="494" fill="#381E0C" width="12" height="12"/>
	<rect y="494" fill="#381E0C" width="12" height="12"/>
	<rect x="480" y="470" fill="#381E0C" width="12" height="12"/>
	<rect x="480" y="482" fill="#381E0C" width="12" height="12"/>
	<rect x="468" y="470" fill="#381E0C" width="12" height="12"/>
	<rect x="468" y="482" fill="#381E0C" width="12" height="12"/>
	<rect x="480" y="494" fill="#381E0C" width="12" height="12"/>
	<rect x="492" y="494" fill="#381E0C" width="12" height="12"/>
	<rect x="36" y="458" fill="#381E0C" width="13" height="12"/>
	<rect x="24" y="458" fill="#381E0C" width="12" height="12"/>
	<rect x="61" y="409" fill="#381E0C" width="13" height="12"/>
	<rect x="49" y="409" fill="#381E0C" width="12" height="12"/>
	<rect x="61" y="396" fill="#381E0C" width="13" height="13"/>
	<rect x="74" y="396" fill="#381E0C" width="12" height="13"/>
	<rect x="74" y="384" fill="#381E0C" width="12" height="12"/>
	<rect x="86" y="396" fill="#381E0C" width="12" height="13"/>
	<rect x="98" y="396" fill="#381E0C" width="12" height="13"/>
	<rect x="110" y="409" fill="#381E0C" width="12" height="12"/>
	<rect x="122" y="409" fill="#381E0C" width="14" height="12"/>
	<rect x="136" y="421" fill="#381E0C" width="12" height="13"/>
	<rect x="148" y="421" fill="#381E0C" width="12" height="13"/>
	<rect x="160" y="421" fill="#381E0C" width="12" height="13"/>
	<rect x="160" y="409" fill="#381E0C" width="12" height="12"/>
	<rect x="172" y="409" fill="#381E0C" width="12" height="12"/>
	<rect x="172" y="421" fill="#381E0C" width="12" height="13"/>
	<rect x="184" y="421" fill="#381E0C" width="13" height="13"/>
	<rect x="184" y="409" fill="#381E0C" width="13" height="12"/>
	<rect x="197" y="421" fill="#381E0C" width="12" height="13"/>
	<rect x="209" y="421" fill="#381E0C" width="13" height="13"/>
	<rect x="282" y="421" fill="#381E0C" width="13" height="13"/>
	<rect x="270" y="421" fill="#381E0C" width="12" height="13"/>
	<rect x="258" y="434" fill="#381E0C" width="12" height="12"/>
	<rect x="246" y="434" fill="#381E0C" width="12" height="12"/>
	<rect x="234" y="421" fill="#381E0C" width="12" height="13"/>
	<rect x="222" y="434" fill="#381E0C" width="12" height="12"/>
	<rect x="295" y="421" fill="#381E0C" width="12" height="13"/>
	<rect x="307" y="421" fill="#381E0C" width="13" height="13"/>
	<rect x="307" y="409" fill="#381E0C" width="13" height="12"/>
	<rect x="429" y="421" fill="#381E0C" width="12" height="13"/>
	<rect x="429" y="434" fill="#381E0C" width="12" height="12"/>
	<rect x="441" y="434" fill="#381E0C" width="12" height="12"/>
	<rect x="429" y="446" fill="#381E0C" width="12" height="12"/>
	<rect x="441" y="446" fill="#381E0C" width="12" height="12"/>
	<rect x="453" y="446" fill="#381E0C" width="15" height="12"/>
	<rect x="429" y="458" fill="#381E0C" width="12" height="12"/>
	<rect x="441" y="458" fill="#381E0C" width="12" height="12"/>
	<rect x="453" y="458" fill="#381E0C" width="15" height="12"/>
	<rect x="429" y="409" fill="#381E0C" width="12" height="12"/>
	<rect x="417" y="409" fill="#381E0C" width="12" height="12"/>
	<rect x="405" y="409" fill="#381E0C" width="12" height="12"/>
	<rect x="405" y="396" fill="#381E0C" width="12" height="13"/>
	<rect x="393" y="396" fill="#381E0C" width="12" height="13"/>
	<rect x="393" y="384" fill="#381E0C" width="12" height="12"/>
	<rect x="381" y="384" fill="#381E0C" width="12" height="12"/>
	<rect x="381" y="372" fill="#381E0C" width="12" height="12"/>
	<rect x="368" y="384" fill="#381E0C" width="13" height="12"/>
	<rect x="356" y="384" fill="#381E0C" width="12" height="12"/>
	<rect x="356" y="396" fill="#381E0C" width="12" height="13"/>
	<rect x="344" y="396" fill="#381E0C" width="12" height="13"/>
	<rect x="344" y="409" fill="#381E0C" width="12" height="12"/>
	<rect x="332" y="409" fill="#381E0C" width="12" height="12"/>
	<rect x="320" y="409" fill="#381E0C" width="12" height="12"/>
	<rect x="110" y="458" fill="#492913" width="12" height="12"/>
	<rect x="136" y="458" fill="#492913" width="12" height="12"/>
	<rect x="122" y="458" fill="#492913" width="14" height="12"/>
	<rect x="148" y="458" fill="#492913" width="12" height="12"/>
	<rect x="74" y="458" fill="#492913" width="12" height="12"/>
	<rect x="98" y="458" fill="#381E0C" width="12" height="12"/>
	<rect x="61" y="458" fill="#492913" width="13" height="12"/>
	<rect x="86" y="458" fill="#492913" width="12" height="12"/>
	<rect x="209" y="458" fill="#492913" width="13" height="12"/>
	<rect x="368" y="409" fill="#492913" width="13" height="12"/>
	<rect x="356" y="409" fill="#492913" width="12" height="12"/>
	<rect x="381" y="409" fill="#492913" width="12" height="12"/>
	<rect x="172" y="458" fill="#492913" width="12" height="12"/>
	<rect x="197" y="458" fill="#492913" width="12" height="12"/>
	<rect x="160" y="458" fill="#492913" width="12" height="12"/>
	<rect x="184" y="458" fill="#492913" width="13" height="12"/>
	<rect x="98" y="409" fill="#492913" width="12" height="12"/>
	<rect x="86" y="409" fill="#492913" width="12" height="12"/>
	<rect x="74" y="409" fill="#492913" width="12" height="12"/>
	<rect x="368" y="458" fill="#381E0C" width="13" height="12"/>
	<rect x="393" y="458" fill="#492913" width="12" height="12"/>
	<rect x="381" y="458" fill="#492913" width="12" height="12"/>
	<rect x="405" y="458" fill="#492913" width="12" height="12"/>
	<rect x="332" y="458" fill="#492913" width="12" height="12"/>
	<rect x="356" y="458" fill="#492913" width="12" height="12"/>
	<rect x="320" y="458" fill="#492913" width="12" height="12"/>
	<rect x="393" y="409" fill="#492913" width="12" height="12"/>
	<rect x="320" y="421" fill="#492913" width="12" height="13"/>
	<rect x="332" y="421" fill="#492913" width="12" height="13"/>
	<rect x="368" y="396" fill="#492913" width="13" height="13"/>
	<rect x="381" y="396" fill="#492913" width="12" height="13"/>
	<rect x="344" y="458" fill="#492913" width="12" height="12"/>
	<rect x="110" y="446" fill="#381E0C" width="12" height="12"/>
	<rect x="136" y="446" fill="#492913" width="12" height="12"/>
	<rect x="122" y="446" fill="#492913" width="14" height="12"/>
	<rect x="148" y="446" fill="#492913" width="12" height="12"/>
	<rect x="74" y="446" fill="#492913" width="12" height="12"/>
	<rect x="98" y="446" fill="#492913" width="12" height="12"/>
	<rect x="61" y="446" fill="#492913" width="13" height="12"/>
	<rect x="86" y="446" fill="#492913" width="12" height="12"/>
	<rect x="209" y="446" fill="#492913" width="13" height="12"/>
	<rect x="295" y="446" fill="#492913" width="12" height="12"/>
	<rect x="282" y="446" fill="#492913" width="13" height="12"/>
	<rect x="307" y="446" fill="#492913" width="13" height="12"/>
	<rect x="172" y="446" fill="#492913" width="12" height="12"/>
	<rect x="197" y="446" fill="#492913" width="12" height="12"/>
	<rect x="160" y="446" fill="#492913" width="12" height="12"/>
	<rect x="184" y="446" fill="#492913" width="13" height="12"/>
	<rect x="368" y="446" fill="#492913" width="13" height="12"/>
	<rect x="393" y="446" fill="#492913" width="12" height="12"/>
	<rect x="381" y="446" fill="#492913" width="12" height="12"/>
	<rect x="405" y="446" fill="#492913" width="12" height="12"/>
	<rect x="332" y="446" fill="#492913" width="12" height="12"/>
	<rect x="356" y="446" fill="#381E0C" width="12" height="12"/>
	<rect x="320" y="446" fill="#492913" width="12" height="12"/>
	<rect x="344" y="446" fill="#492913" width="12" height="12"/>
	<rect x="110" y="434" fill="#492913" width="12" height="12"/>
	<rect x="136" y="434" fill="#492913" width="12" height="12"/>
	<rect x="122" y="434" fill="#492913" width="14" height="12"/>
	<rect x="148" y="434" fill="#492913" width="12" height="12"/>
	<rect x="74" y="434" fill="#492913" width="12" height="12"/>
	<rect x="98" y="434" fill="#381E0C" width="12" height="12"/>
	<rect x="61" y="434" fill="#492913" width="13" height="12"/>
	<rect x="86" y="434" fill="#492913" width="12" height="12"/>
	<rect x="209" y="434" fill="#492913" width="13" height="12"/>
	<rect x="295" y="434" fill="#492913" width="12" height="12"/>
	<rect x="282" y="434" fill="#492913" width="13" height="12"/>
	<rect x="307" y="434" fill="#492913" width="13" height="12"/>
	<rect x="172" y="434" fill="#492913" width="12" height="12"/>
	<rect x="197" y="434" fill="#492913" width="12" height="12"/>
	<rect x="160" y="434" fill="#492913" width="12" height="12"/>
	<rect x="184" y="434" fill="#492913" width="13" height="12"/>
	<rect x="368" y="434" fill="#492913" width="13" height="12"/>
	<rect x="393" y="434" fill="#492913" width="12" height="12"/>
	<rect x="381" y="434" fill="#492913" width="12" height="12"/>
	<rect x="405" y="434" fill="#492913" width="12" height="12"/>
	<rect x="332" y="434" fill="#492913" width="12" height="12"/>
	<rect x="356" y="434" fill="#492913" width="12" height="12"/>
	<rect x="320" y="434" fill="#492913" width="12" height="12"/>
	<rect x="344" y="434" fill="#381E0C" width="12" height="12"/>
	<rect x="110" y="421" fill="#492913" width="12" height="13"/>
	<rect x="122" y="421" fill="#492913" width="14" height="13"/>
	<rect x="74" y="421" fill="#492913" width="12" height="13"/>
	<rect x="98" y="421" fill="#492913" width="12" height="13"/>
	<rect x="61" y="421" fill="#492913" width="13" height="13"/>
	<rect x="86" y="421" fill="#381E0C" width="12" height="13"/>
	<rect x="368" y="421" fill="#492913" width="13" height="13"/>
	<rect x="393" y="421" fill="#492913" width="12" height="13"/>
	<rect x="381" y="421" fill="#492913" width="12" height="13"/>
	<rect x="405" y="421" fill="#492913" width="12" height="13"/>
	<rect x="417" y="421" fill="#492913" width="12" height="13"/>
	<rect x="417" y="434" fill="#492913" width="12" height="12"/>
	<rect x="417" y="446" fill="#492913" width="12" height="12"/>
	<rect x="417" y="458" fill="#492913" width="12" height="12"/>
	<rect x="282" y="458" fill="#492913" width="13" height="12"/>
	<rect x="295" y="458" fill="#492913" width="12" height="12"/>
	<rect x="307" y="458" fill="#492913" width="13" height="12"/>
	<rect x="36" y="494" fill="#492913" width="13" height="12"/>
	<rect x="49" y="494" fill="#492913" width="12" height="12"/>
	<rect x="110" y="494" fill="#492913" width="12" height="12"/>
	<rect x="74" y="494" fill="#492913" width="12" height="12"/>
	<rect x="98" y="494" fill="#492913" width="12" height="12"/>
	<rect x="61" y="494" fill="#492913" width="13" height="12"/>
	<rect x="86" y="494" fill="#492913" width="12" height="12"/>
	<rect x="36" y="482" fill="#492913" width="13" height="12"/>
	<rect x="49" y="482" fill="#492913" width="12" height="12"/>
	<rect x="110" y="482" fill="#492913" width="12" height="12"/>
	<rect x="136" y="482" fill="#492913" width="12" height="12"/>
	<rect x="122" y="482" fill="#381E0C" width="14" height="12"/>
	<rect x="148" y="482" fill="#492913" width="12" height="12"/>
	<rect x="74" y="482" fill="#492913" width="12" height="12"/>
	<rect x="98" y="482" fill="#492913" width="12" height="12"/>
	<rect x="61" y="482" fill="#492913" width="13" height="12"/>
	<rect x="86" y="482" fill="#492913" width="12" height="12"/>
	<rect x="36" y="470" fill="#492913" width="13" height="12"/>
	<rect x="49" y="470" fill="#492913" width="12" height="12"/>
	<rect x="110" y="470" fill="#381E0C" width="12" height="12"/>
	<rect x="136" y="470" fill="#492913" width="12" height="12"/>
	<rect x="122" y="470" fill="#492913" width="14" height="12"/>
	<rect x="148" y="470" fill="#492913" width="12" height="12"/>
	<rect x="74" y="470" fill="#492913" width="12" height="12"/>
	<rect x="98" y="470" fill="#492913" width="12" height="12"/>
	<rect x="61" y="470" fill="#492913" width="13" height="12"/>
	<rect x="86" y="470" fill="#492913" width="12" height="12"/>
	<rect x="122" y="494" fill="#381E0C" width="14" height="12"/>
	<rect x="136" y="494" fill="#492913" width="12" height="12"/>
	<rect x="148" y="494" fill="#492913" width="12" height="12"/>
	<rect x="160" y="494" fill="#492913" width="12" height="12"/>
	<rect x="172" y="494" fill="#492913" width="12" height="12"/>
	<rect x="295" y="494" fill="#492913" width="12" height="12"/>
	<rect x="197" y="494" fill="#381E0C" width="12" height="12"/>
	<rect x="282" y="494" fill="#492913" width="13" height="12"/>
	<rect x="184" y="494" fill="#492913" width="13" height="12"/>
	<rect x="209" y="494" fill="#492913" width="13" height="12"/>
	<rect x="160" y="482" fill="#492913" width="12" height="12"/>
	<rect x="172" y="482" fill="#492913" width="12" height="12"/>
	<rect x="295" y="482" fill="#492913" width="12" height="12"/>
	<rect x="320" y="482" fill="#492913" width="12" height="12"/>
	<rect x="307" y="482" fill="#492913" width="13" height="12"/>
	<rect x="332" y="482" fill="#492913" width="12" height="12"/>
	<rect x="197" y="482" fill="#492913" width="12" height="12"/>
	<rect x="282" y="482" fill="#492913" width="13" height="12"/>
	<rect x="184" y="482" fill="#492913" width="13" height="12"/>
	<rect x="209" y="482" fill="#381E0C" width="13" height="12"/>
	<rect x="160" y="470" fill="#492913" width="12" height="12"/>
	<rect x="172" y="470" fill="#492913" width="12" height="12"/>
	<rect x="295" y="470" fill="#492913" width="12" height="12"/>
	<rect x="320" y="470" fill="#492913" width="12" height="12"/>
	<rect x="307" y="470" fill="#492913" width="13" height="12"/>
	<rect x="332" y="470" fill="#492913" width="12" height="12"/>
	<rect x="197" y="470" fill="#381E0C" width="12" height="12"/>
	<rect x="282" y="470" fill="#492913" width="13" height="12"/>
	<rect x="184" y="470" fill="#492913" width="13" height="12"/>
	<rect x="209" y="470" fill="#492913" width="13" height="12"/>
	<rect x="307" y="494" fill="#492913" width="13" height="12"/>
	<rect x="258" y="446" fill="#492913" width="12" height="12"/>
	<rect x="246" y="446" fill="#492913" width="12" height="12"/>
	<rect x="270" y="446" fill="#492913" width="12" height="12"/>
	<rect x="270" y="434" fill="#492913" width="12" height="12"/>
	<rect x="246" y="458" fill="#492913" width="12" height="12"/>
	<rect x="258" y="458" fill="#492913" width="12" height="12"/>
	<rect x="270" y="458" fill="#492913" width="12" height="12"/>
	<rect x="258" y="494" fill="#492913" width="12" height="12"/>
	<rect x="246" y="494" fill="#492913" width="12" height="12"/>
	<rect x="258" y="482" fill="#492913" width="12" height="12"/>
	<rect x="270" y="482" fill="#492913" width="12" height="12"/>
	<rect x="246" y="482" fill="#492913" width="12" height="12"/>
	<rect x="258" y="470" fill="#492913" width="12" height="12"/>
	<rect x="270" y="470" fill="#492913" width="12" height="12"/>
	<rect x="246" y="470" fill="#492913" width="12" height="12"/>
	<rect x="234" y="446" fill="#492913" width="12" height="12"/>
	<rect x="222" y="446" fill="#492913" width="12" height="12"/>
	<rect x="234" y="434" fill="#492913" width="12" height="12"/>
	<rect x="222" y="458" fill="#492913" width="12" height="12"/>
	<rect x="234" y="458" fill="#492913" width="12" height="12"/>
	<rect x="234" y="494" fill="#492913" width="12" height="12"/>
	<rect x="222" y="494" fill="#492913" width="12" height="12"/>
	<rect x="234" y="482" fill="#492913" width="12" height="12"/>
	<rect x="222" y="482" fill="#492913" width="12" height="12"/>
	<rect x="234" y="470" fill="#492913" width="12" height="12"/>
	<rect x="222" y="470" fill="#492913" width="12" height="12"/>
	<rect x="270" y="494" fill="#492913" width="12" height="12"/>
	<rect x="320" y="494" fill="#492913" width="12" height="12"/>
	<rect x="332" y="494" fill="#492913" width="12" height="12"/>
	<rect x="344" y="494" fill="#492913" width="12" height="12"/>
	<rect x="356" y="494" fill="#492913" width="12" height="12"/>
	<rect x="417" y="494" fill="#492913" width="12" height="12"/>
	<rect x="381" y="494" fill="#381E0C" width="12" height="12"/>
	<rect x="405" y="494" fill="#492913" width="12" height="12"/>
	<rect x="368" y="494" fill="#492913" width="13" height="12"/>
	<rect x="393" y="494" fill="#492913" width="12" height="12"/>
	<rect x="344" y="482" fill="#492913" width="12" height="12"/>
	<rect x="356" y="482" fill="#492913" width="12" height="12"/>
	<rect x="417" y="482" fill="#492913" width="12" height="12"/>
	<rect x="441" y="482" fill="#492913" width="12" height="12"/>
	<rect x="429" y="482" fill="#492913" width="12" height="12"/>
	<rect x="453" y="482" fill="#492913" width="15" height="12"/>
	<rect x="381" y="482" fill="#492913" width="12" height="12"/>
	<rect x="405" y="482" fill="#492913" width="12" height="12"/>
	<rect x="368" y="482" fill="#492913" width="13" height="12"/>
	<rect x="393" y="482" fill="#381E0C" width="12" height="12"/>
	<rect x="344" y="470" fill="#492913" width="12" height="12"/>
	<rect x="356" y="470" fill="#492913" width="12" height="12"/>
	<rect x="417" y="470" fill="#492913" width="12" height="12"/>
	<rect x="441" y="470" fill="#492913" width="12" height="12"/>
	<rect x="429" y="470" fill="#492913" width="12" height="12"/>
	<rect x="453" y="470" fill="#492913" width="15" height="12"/>
	<rect x="381" y="470" fill="#381E0C" width="12" height="12"/>
	<rect x="405" y="470" fill="#492913" width="12" height="12"/>
	<rect x="368" y="470" fill="#492913" width="13" height="12"/>
	<rect x="393" y="470" fill="#492913" width="12" height="12"/>
	<rect x="429" y="494" fill="#492913" width="12" height="12"/>
	<rect x="441" y="494" fill="#492913" width="12" height="12"/>
	<rect x="24" y="494" fill="#492913" width="12" height="12"/>
	<rect x="453" y="494" fill="#492913" width="15" height="12"/>
	<rect x="468" y="494" fill="#492913" width="12" height="12"/>
	<rect x="356" y="421" fill="#492913" width="12" height="13"/>
	<rect x="344" y="421" fill="#492913" width="12" height="13"/>
	<rect x="441" y="494" fill="#457F26" width="12" height="12"/>
	<rect x="441" y="482" fill="#457F26" width="12" height="12"/>
	<rect x="441" y="470" fill="#457F26" width="12" height="12"/>
	<rect x="453" y="458" fill="#528C30" width="15" height="12"/>
	<rect x="453" y="446" fill="#528C30" width="15" height="12"/>
	<g>
		<rect x="49" y="396" fill="#528C30" width="12" height="13"/>
		<rect x="49" y="384" fill="#528C30" width="12" height="12"/>
	</g>
	<rect x="468" y="434" fill="#5E993C" width="12" height="12"/>
	<rect x="441" y="396" fill="#5E993C" width="12" height="13"/>
	<rect x="417" y="470" fill="#457F26" width="12" height="12"/>
	<rect x="417" y="458" fill="#457F26" width="12" height="12"/>
	<rect x="417" y="446" fill="#457F26" width="12" height="12"/>
	<g>
		<rect x="429" y="434" fill="#528C30" width="12" height="12"/>
		<rect x="429" y="421" fill="#528C30" width="12" height="13"/>
	</g>
	<rect x="441" y="409" fill="#5E993C" width="12" height="12"/>
	<rect x="36" y="372" fill="#5E993C" width="13" height="12"/>
	<g>
		<rect x="61" y="434" fill="#457F26" width="13" height="12"/>
		<rect x="61" y="421" fill="#457F26" width="13" height="13"/>
		<rect x="61" y="409" fill="#457F26" width="13" height="12"/>
	</g>
</g>
</svg>
